<svg width="224" height="356" fill="none" xmlns="http://www.w3.org/2000/svg"><path d="M42.5 219.2a5.5 5.5 0 01-4-9.5L74 174.4a5.5 5.5 0 117.8 7.9l-35.3 35.3c-1 1-2.5 1.6-3.9 1.6zM7.2 176a5.5 5.5 0 01-4-9.5l27.5-27.4a5.5 5.5 0 117.9 7.8L11 174.4c-1 1-2.5 1.6-4 1.6z" fill="#042F00"/><path d="M76.8 272.7c-1.8 0-3.6-.9-4.7-2.5l-34.3-53.6a5.5 5.5 0 119.4-6l34.3 53.6a5.5 5.5 0 01-4.7 8.5zM163.6 203.1l-1.2-.1-85.8-19.3A5.5 5.5 0 1179 173l85.8 19.2a5.5 5.5 0 01-1.2 11z" fill="#042F00"/><path d="M112.4 272.7c-1.7 0-3.4-.7-4.5-2.2a5.6 5.6 0 011.1-7.8c22.8-17 39.4-39.5 49.4-67 1-3 4.2-4.4 7-3.4 3 1 4.4 4.3 3.4 7.2a153.8 153.8 0 01-53.1 72.1c-1 .8-2.2 1.1-3.3 1.1z" fill="#042F00"/><path d="M80.4 272.7a5.5 5.5 0 01-2.4-10.6 124.1 124.1 0 0064-70.2 5.6 5.6 0 0110.4 4 135.2 135.2 0 01-69.7 76.3c-.8.4-1.6.5-2.3.5zM73.9 180a5.5 5.5 0 01-4-9.5L211.4 29.2A5.5 5.5 0 11219 37L77.8 178.3c-1 1.1-2.5 1.6-4 1.6zM42.5 148.6a5.5 5.5 0 01-4-9.5l24.3-24.2a5.5 5.5 0 117.8 7.8L46.4 147c-1 1.1-2.5 1.7-3.9 1.7z" fill="#042F00"/><path d="M74.6 127.6c-4.3 0-8.6-1.7-11.9-5a5.5 5.5 0 117.9-7.8 5.7 5.7 0 008 0 5.5 5.5 0 117.8 7.9 16.7 16.7 0 01-11.8 4.9z" fill="#042F00"/><path d="M82.5 124.3a5.5 5.5 0 01-4-9.5L187.8 5.6a5.5 5.5 0 117.9 7.9L86.4 122.7c-1 1-2.5 1.6-4 1.6zM215.2 38.6a5.5 5.5 0 01-4-9.4 5.6 5.6 0 000-7.9 5.5 5.5 0 118-7.8c6.4 6.5 6.4 17 0 23.5-1.2 1.1-2.6 1.6-4 1.6z" fill="#042F00"/><path d="M191.7 15.1a5.5 5.5 0 01-4-9.5c6.5-6.5 17-6.5 23.6 0a5.6 5.6 0 01-7.9 7.9 5.6 5.6 0 00-7.8 0c-1.1 1-2.5 1.6-4 1.6z" fill="#042F00"/><path d="M215.2 23c-1.4 0-2.8-.6-4-1.7l-7.8-7.8a5.5 5.5 0 117.9-7.9l7.8 7.9a5.5 5.5 0 01-3.9 9.4zM34.7 148.6a5.6 5.6 0 01-4-9.5 11.2 11.2 0 0115.7 0 5.5 5.5 0 11-7.8 7.8c-1 1.1-2.5 1.7-4 1.7z" fill="#042F00"/><path d="M77.8 183.9c-1.4 0-2.8-.6-3.9-1.6l-35.3-35.4a5.5 5.5 0 117.8-7.8l35.3 35.3a5.5 5.5 0 01-3.9 9.5zM7.2 183.9c-1.4 0-2.9-.6-4-1.7a11 11 0 010-15.7 5.5 5.5 0 117.9 7.9 5.5 5.5 0 01-4 9.5z" fill="#042F00"/><path d="M42.5 219.2c-1.4 0-2.8-.6-4-1.6L3.4 182.3a5.5 5.5 0 117.8-7.9l35.3 35.3a5.5 5.5 0 01-3.9 9.5zM173 356c-2.5 0-4.9-1.8-5.4-4.5l-15.8-78.8h-113l-15.7 78.8a5.5 5.5 0 11-10.9-2.1L29 266a5.6 5.6 0 015.4-4.5h122.1c2.6 0 5 1.9 5.4 4.5l16.7 83.3a5.5 5.5 0 01-5.4 6.6z" fill="#042F00"/><path d="M159.7 289.4H31a5.5 5.5 0 110-11.1h128.7a5.5 5.5 0 110 11z" fill="#042F00"/></svg>