<svg width="300" height="300" viewBox="0 0 300 300" fill="none" xmlns="http://www.w3.org/2000/svg">
<path d="M287.959 162.356C294.609 162.356 300 155.991 300 148.138V101.49C300 93.6379 294.609 87.272 287.959 87.272H274.885V48.4095C274.885 46.7956 274.397 45.235 273.509 44.0087L243.406 2.37034C241.347 -0.471561 237.729 -0.805007 235.322 1.62474C235.095 1.85325 234.885 2.10291 234.69 2.37034L204.587 44.0087C203.699 45.235 203.211 46.7956 203.211 48.4095V87.272H186.009V48.4095C186.009 46.7956 185.521 45.235 184.633 44.0087L154.358 2.37034C152.299 -0.471561 148.68 -0.805007 146.274 1.62474C146.047 1.85325 145.836 2.10291 145.642 2.37034L115.596 44.0087C114.708 45.235 114.22 46.7956 114.22 48.4095V87.272H97.0183V48.4095C97.0183 46.7956 96.5302 45.235 95.6422 44.0087L65.3096 2.37034C63.2511 -0.471561 59.6316 -0.805007 57.2255 1.62474C56.999 1.85325 56.7883 2.10291 56.594 2.37034L26.4908 44.0087C25.6028 45.235 25.1147 46.7956 25.1147 48.4095V87.272H12.0413C5.39134 87.272 0 93.6379 0 101.49V148.138C0 155.991 5.39134 162.356 12.0413 162.356H25.1147V184.902H12.0413C5.39134 184.902 0 191.268 0 199.12V245.769C0 253.621 5.39134 259.987 12.0413 259.987H25.1147V293.23C25.1147 296.969 27.6821 300 30.8486 300H90.9977C94.1643 300 96.7317 296.969 96.7317 293.23V259.919H113.933V293.162C113.933 296.901 116.501 299.932 119.667 299.932H180.103C183.27 299.932 185.837 296.901 185.837 293.162V259.919H203.039V293.162C203.039 296.901 205.606 299.932 208.773 299.932H269.151C272.318 299.932 274.885 296.901 274.885 293.162V259.919H287.959C294.609 259.919 300 253.553 300 245.701V199.052C300 191.2 294.609 184.834 287.959 184.834H274.885V162.356H287.959V162.356ZM214.736 50.9146L239.106 17.0623L263.475 50.9146V87.272H214.736V50.9146ZM125.688 50.9146L150.057 17.0623L174.427 50.9146V87.272H125.631L125.688 50.9146ZM36.6399 50.9146L61.0092 17.0623L85.3784 50.9146V87.272H36.5826L36.6399 50.9146ZM36.5826 286.459V259.919H85.2638L85.3211 286.459H36.5826ZM125.631 286.459V259.919H174.312L174.369 286.459H125.631ZM263.417 286.459H214.736V259.919H263.417V286.459V286.459ZM287.959 198.443C288.276 198.443 288.532 198.746 288.532 199.12V245.769C288.532 246.143 288.276 246.446 287.959 246.446H12.0413C11.7245 246.446 11.4679 246.143 11.4679 245.769V199.052C11.4679 198.678 11.7245 198.375 12.0413 198.375L287.959 198.443ZM36.5826 184.902V162.356H85.2638V184.902H36.5826V184.902ZM96.7317 184.902V162.356H113.933V184.902H96.7317V184.902ZM125.401 184.902V162.356H174.083V184.902H125.401V184.902ZM185.55 184.902V162.356H202.752V184.902H185.55V184.902ZM214.22 184.902V162.356H262.901V184.902H214.22V184.902ZM12.0413 148.816C11.7245 148.816 11.4679 148.513 11.4679 148.138V101.49C11.4679 101.116 11.7245 100.813 12.0413 100.813H287.959C288.276 100.813 288.532 101.116 288.532 101.49L288.073 148.138C288.073 148.513 287.817 148.816 287.5 148.816H12.0413Z" fill="#042F00"/>
<path d="M60.9519 134.666C65.5754 134.666 69.3234 130.24 69.3234 124.781C69.3234 119.321 65.5754 114.896 60.9519 114.896C56.3284 114.896 52.5803 119.321 52.5803 124.781C52.5803 130.24 56.3284 134.666 60.9519 134.666Z" fill="#042F00"/>
<path d="M60.9519 232.295C65.5754 232.295 69.3234 227.87 69.3234 222.411C69.3234 216.951 65.5754 212.526 60.9519 212.526C56.3284 212.526 52.5803 216.951 52.5803 222.411C52.5803 227.87 56.3284 232.295 60.9519 232.295Z" fill="#042F00"/>
<path d="M150 134.666C154.623 134.666 158.372 130.24 158.372 124.781C158.372 119.321 154.623 114.896 150 114.896C145.376 114.896 141.628 119.321 141.628 124.781C141.628 130.24 145.376 134.666 150 134.666Z" fill="#042F00"/>
<path d="M150 232.295C154.623 232.295 158.372 227.87 158.372 222.411C158.372 216.951 154.623 212.526 150 212.526C145.376 212.526 141.628 216.951 141.628 222.411C141.628 227.87 145.376 232.295 150 232.295Z" fill="#042F00"/>
<path d="M239.048 134.666C243.672 134.666 247.42 130.24 247.42 124.781C247.42 119.321 243.672 114.896 239.048 114.896C234.425 114.896 230.677 119.321 230.677 124.781C230.677 130.24 234.425 134.666 239.048 134.666Z" fill="#042F00"/>
<path d="M239.048 232.295C243.672 232.295 247.42 227.87 247.42 222.411C247.42 216.951 243.672 212.526 239.048 212.526C234.425 212.526 230.677 216.951 230.677 222.411C230.677 227.87 234.425 232.295 239.048 232.295Z" fill="#042F00"/>
</svg>
