<svg width="300" height="300" fill="none" xmlns="http://www.w3.org/2000/svg"><path d="M125.8 228.9a22.2 22.2 0 00-22.2 22.1 4.9 4.9 0 109.8 0 12.4 12.4 0 0112.4-12.4 4.9 4.9 0 100-9.7zM183.5 208.3a17 17 0 00-12.4-3.8 4.9 4.9 0 00.9 9.7 7.2 7.2 0 017.8 6.5 4.9 4.9 0 004.9 4.4h.5a4.9 4.9 0 004.4-5.3 16.9 16.9 0 00-6.1-11.5z" fill="#042F00"/><path d="M297.3 290.8a39.4 39.4 0 00-42.8-34.9 40 40 0 00-38.8-39.4 55 55 0 00-8.5-14.8c-.4-2.3-1-4.6-1.9-6.8l-29.5-72a12.7 12.7 0 00-19.4-5.4l-21.6 16.3-2.1-2.8a4.8 4.8 0 00-6.4-1.2l-64-85.1-5.6-34.2A10.4 10.4 0 0042 2.8 10.7 10.7 0 0028.6 2L8 17.5A10.7 10.7 0 005 30.8a10.4 10.4 0 003.4 16l31.3 15 64 85a4.9 4.9 0 00-.6 6.5l2 2.8-21.6 16.2a12.7 12.7 0 00-.2 20.1l21.5 17a40.3 40.3 0 00-26.5 30H78a30.7 30.7 0 00-27.3 16.4 39.5 39.5 0 00-36.4 34.4H4.9a4.9 4.9 0 100 9.8H295a4.9 4.9 0 002.2-9.2zM56.7 53.5l61.8 82-7.1 5.5-61.8-82.1 7.1-5.4zM115.8 154l-2-2.7 14-10.6 18 24-14 10.6-16-21.3zM52.4 44.5l-10.2 7.7-23.8-11.4c2 0 4-.8 5.6-2l20.5-15.4c1.6-1.3 2.9-3 3.6-4.9l4.3 26zM13.9 25.3L34.4 10a.9.9 0 011.3.2l3.1 4.2a.9.9 0 01-.2 1.3L18.1 31a.9.9 0 01-1.2-.2l-1.6-2.1-1.6-2a.9.9 0 01.2-1.4zm74.2 157.1a2.9 2.9 0 011.2-2.3l21.6-16.2 16 21.2a4.9 4.9 0 006.9 1l21.9-16.4a4.9 4.9 0 001-6.9l-16-21.2 21.6-16.3a3 3 0 014.4 1.2l25.6 62.4a55.2 55.2 0 00-74.6 18.4l-28.5-22.5a2.9 2.9 0 01-1-2.4zm-34.8 83.1h.5a4.9 4.9 0 004.6-3 20.9 20.9 0 0123.2-13 4.9 4.9 0 005.7-4.5 30.3 30.3 0 0132.6-27.7 4.9 4.9 0 004.7-2.6 45.3 45.3 0 0183 8.2 4.9 4.9 0 005 3.4h.5l1.5-.1a30 30 0 0129.8 34.9 4.9 4.9 0 006 5.5 29.5 29.5 0 0137 23.6H24.2a29.6 29.6 0 0129-24.7z" fill="#042F00"/></svg>