<svg width="300" height="300" fill="none" xmlns="http://www.w3.org/2000/svg"><path d="M149 300a73.7 73.7 0 01-30.6-6.6l-46.2-21A169 169 0 0019.6 258l-15.2-1.6a5 5 0 01-4.4-5.1v-50c0-1 .3-2.2 1-3 1.1-1.6 28.3-38.9 70-29.2a172.3 172.3 0 0153.8 23.2 52.6 52.6 0 0028.8 8.4h46.2c8 0 15 4.5 19 11.1l39.7-48.1a41.6 41.6 0 0133.6-17.4h3c1.7 0 3.2.8 4.1 2.3 1 1.4 1 3.3.4 4.9l-36 85.8a65 65 0 01-43 37.9l-6.3 1.6-36.9 15.5c-9 3.8-18.7 5.7-28.4 5.7zM9.8 246.6l10.8 1.2c19.1 2 37.8 7 55.5 15.1l46.2 21c16.3 7.5 35 7.8 51.5.9l37.2-15.6.6-.2 6.7-1.8a55 55 0 0036.3-32l32.9-78.3c-8.4 1.3-16.2 6-21.3 13.2L222 223.4v.6c0 12.9-10 23.3-22.2 23.3h-64.5c-8.4 0-16.7 1.4-24.7 4.2l-1.8-4.8-1.5-4.8.3-.1c9-3.2 18.2-4.7 27.7-4.7h64.5c6.9 0 12.5-5.9 12.5-13 0-7.3-5.6-13.1-12.5-13.1h-46.2a62 62 0 01-34-10c-11-7.1-28.7-16.8-50.8-22-31.5-7.2-54.1 18.1-59 24.1v43.5zM192.5 145.1c-7.5 0-16-2.4-25.2-7.3a5 5 0 01-2.4-2.8c-.4-1.1-9.1-27.5 4.8-47 10-14.1 29-20.5 56.4-18.9a5 5 0 014.6 4.9c0 2 2.1 50-21.3 66-5 3.4-10.6 5.1-16.9 5.1zm-19-15.5c12.9 6.3 23.1 7 30.6 1.8 13.8-9.4 16.8-37.6 17-52.2-21.5-.6-36.1 4.5-43.6 15-9 12.5-5.5 29.7-4 35.4zM117.8 78c-8.7 0-18.7-2-27.4-8.7C75.6 58 68.8 36.3 70 5A5 5 0 0174.7.1c2.2 0 52.2-2.9 69 23.6 7.9 12.3 7.3 28.5-1.8 48a5 5 0 01-2.8 2.6c-.6.2-9.8 3.7-21.3 3.7zm19.7-8.5zM79.8 10.2c-.4 25.1 5 42.2 16.4 50.9 13.5 10.4 32 6 37.8 4.2 6.6-15.1 7.2-27.2 1.6-36-10.3-16.1-40.5-19.3-55.8-19z" fill="#042F00"/><path d="M156 209.2h-.5a5 5 0 01-4.4-5.4c.3-6 .7-11.7 1.4-17.2 2-36.2 1-120.6-50-144a5.2 5.2 0 01-2.5-6.7c1.1-2.6 4-3.8 6.5-2.7 30 13.8 48.9 48 54.6 99.1l1.2 13.5c13.4-35.5 33.9-48 35.1-48.8a4.8 4.8 0 016.7 2c1.3 2.4.5 5.5-1.9 7-.5.2-32 20-39.9 81-.6 10.5-1.4 17.2-1.5 17.8a5 5 0 01-4.8 4.4z" fill="#042F00"/></svg>