<svg width="20" height="20" viewBox="0 0 20 20" fill="none" xmlns="http://www.w3.org/2000/svg">
<path d="M5.82516 0.0334376C6.42046 0.182267 6.78241 0.785507 6.63358 1.38083L2.18925 19.1581C2.04043 19.7534 1.43718 20.1154 0.841873 19.9665C0.246555 19.8178 -0.115392 19.2146 0.0334376 18.6192L4.47777 0.841873C4.6266 0.246555 5.22984 -0.115392 5.82516 0.0334376ZM15.5222 0.841873L19.9665 18.6192C20.1154 19.2146 19.7534 19.8178 19.1581 19.9665C18.5628 20.1154 17.9596 19.7534 17.8108 19.1581L13.3665 1.38083C13.2176 0.785507 13.5796 0.182267 14.1749 0.0334376C14.7702 -0.115392 15.3734 0.246555 15.5222 0.841873ZM10 15.5554C10.5698 15.5554 11.0394 15.9843 11.1036 16.5369L11.1111 16.6665V18.8887C11.1111 19.5023 10.6137 19.9998 10 19.9998C9.4302 19.9998 8.96059 19.5709 8.89641 19.0183L8.88894 18.8887V16.6665C8.88894 16.0529 9.38637 15.5554 10 15.5554ZM10 7.77784C10.6137 7.77784 11.1111 8.27528 11.1111 8.88892V11.1111C11.1111 11.7248 10.6137 12.2222 10 12.2222C9.38637 12.2222 8.88894 11.7248 8.88894 11.1111V8.88892C8.88894 8.27528 9.38637 7.77784 10 7.77784ZM10 0.0002606C10.5698 0.0002606 11.0394 0.429188 11.1036 0.981769L11.1111 1.11134V3.33351C11.1111 3.94715 10.6137 4.44459 10 4.44459C9.4302 4.44459 8.96059 4.01567 8.89641 3.46309L8.88894 3.33351V1.11134C8.88894 0.497715 9.38637 0.0002606 10 0.0002606Z" fill="#064A00"/>
</svg>
