<svg width="22" height="17" viewBox="0 0 22 17" fill="none" xmlns="http://www.w3.org/2000/svg">
<path d="M2.0625 0C0.923828 0 0 0.923828 0 2.0625C0 2.71133 0.305078 3.32148 0.825 3.7125L10.175 10.725C10.6648 11.0902 11.3352 11.0902 11.825 10.725L21.175 3.7125C21.6949 3.32148 22 2.71133 22 2.0625C22 0.923828 21.0762 0 19.9375 0H2.0625ZM0 4.8125V13.75C0 15.2668 1.2332 16.5 2.75 16.5H19.25C20.7668 16.5 22 15.2668 22 13.75V4.8125L12.65 11.825C11.6703 12.5598 10.3297 12.5598 9.35 11.825L0 4.8125Z" fill="#064A00"/>
</svg>
