<svg width="14" height="11" viewBox="0 0 14 11" fill="none" xmlns="http://www.w3.org/2000/svg">
<path d="M1.3125 0C0.587891 0 0 0.587891 0 1.3125C0 1.72539 0.194141 2.11367 0.525 2.3625L6.475 6.825C6.78672 7.05742 7.21328 7.05742 7.525 6.825L13.475 2.3625C13.8059 2.11367 14 1.72539 14 1.3125C14 0.587891 13.4121 0 12.6875 0H1.3125ZM0 3.0625V8.75C0 9.71523 0.784766 10.5 1.75 10.5H12.25C13.2152 10.5 14 9.71523 14 8.75V3.0625L8.05 7.525C7.42656 7.99258 6.57344 7.99258 5.95 7.525L0 3.0625Z" fill="#064A00"/>
</svg>
