<svg width="17" height="12" viewBox="0 0 17 12" fill="none" xmlns="http://www.w3.org/2000/svg">
<path d="M16.8223 7.20957C16.8223 9.59946 14.8477 11.5352 12.4098 11.5352H12.1156C11.4647 11.5352 10.9389 11.0197 10.9389 10.3817C10.9389 9.74364 11.4647 9.22818 12.1156 9.22818H12.4098C13.546 9.22818 14.4689 8.32341 14.4689 7.20957V6.9212H12.1156C10.8176 6.9212 9.76225 5.88667 9.76225 4.61423V2.30725C9.76225 1.03481 10.8176 0.000272751 12.1156 0.000272751H14.4689C15.7669 0.000272751 16.8223 1.03481 16.8223 2.30725V3.46074V4.61423V7.20957ZM7.40891 7.20957C7.40891 9.59946 5.43431 11.5352 2.9964 11.5352H2.70223C2.05139 11.5352 1.52556 11.0197 1.52556 10.3817C1.52556 9.74364 2.05139 9.22818 2.70223 9.22818H2.9964C4.13262 9.22818 5.05557 8.32341 5.05557 7.20957V6.9212H2.70223C1.40422 6.9212 0.348892 5.88667 0.348892 4.61423V2.30725C0.348892 1.03481 1.40422 0.000272751 2.70223 0.000272751H5.05557C6.35358 0.000272751 7.40891 1.03481 7.40891 2.30725V3.46074V4.61423V7.20957Z" fill="#064A00"/>
</svg>
