<svg width="12" height="16" viewBox="0 0 12 16" fill="none" xmlns="http://www.w3.org/2000/svg">
<path d="M0 2C0 0.896875 0.924053 0 2.06061 0H9.27273C10.4093 0 11.3333 0.896875 11.3333 2V14C11.3333 15.1031 10.4093 16 9.27273 16H2.06061C0.924053 16 0 15.1031 0 14V2ZM4.12121 14C4.12121 14.275 4.35303 14.5 4.63636 14.5H6.69697C6.9803 14.5 7.21212 14.275 7.21212 14C7.21212 13.725 6.9803 13.5 6.69697 13.5H4.63636C4.35303 13.5 4.12121 13.725 4.12121 14ZM9.27273 2H2.06061V12H9.27273V2Z" fill="white"/>
</svg>
