<svg width="18" height="26" viewBox="0 0 18 26" fill="none" xmlns="http://www.w3.org/2000/svg">
<path d="M0 3.20455C0 1.43704 1.46761 0 3.27273 0H14.7273C16.5324 0 18 1.43704 18 3.20455V22.4318C18 24.1993 16.5324 25.6364 14.7273 25.6364H3.27273C1.46761 25.6364 0 24.1993 0 22.4318V3.20455ZM6.54545 22.4318C6.54545 22.8724 6.91364 23.233 7.36364 23.233H10.6364C11.0864 23.233 11.4545 22.8724 11.4545 22.4318C11.4545 21.9912 11.0864 21.6307 10.6364 21.6307H7.36364C6.91364 21.6307 6.54545 21.9912 6.54545 22.4318ZM14.7273 3.20455H3.27273V19.2273H14.7273V3.20455Z" fill="#064A00"/>
</svg>
