<svg width="14" height="20" viewBox="0 0 14 20" fill="none" xmlns="http://www.w3.org/2000/svg">
<path d="M0 2.49242C0 1.1177 1.14148 0 2.54545 0H11.4545C12.8585 0 14 1.1177 14 2.49242V17.447C14 18.8217 12.8585 19.9394 11.4545 19.9394H2.54545C1.14148 19.9394 0 18.8217 0 17.447V2.49242ZM5.09091 17.447C5.09091 17.7897 5.37727 18.0701 5.72727 18.0701H8.27273C8.62273 18.0701 8.90909 17.7897 8.90909 17.447C8.90909 17.1043 8.62273 16.8239 8.27273 16.8239H5.72727C5.37727 16.8239 5.09091 17.1043 5.09091 17.447ZM11.4545 2.49242H2.54545V14.9545H11.4545V2.49242Z" fill="#064A00"/>
</svg>
