<svg width="20" height="20" viewBox="0 0 20 20" fill="none" xmlns="http://www.w3.org/2000/svg">
<path d="M0 10C0 12.6522 1.05357 15.1957 2.92893 17.0711C4.8043 18.9464 7.34783 20 10 20C12.6522 20 15.1957 18.9464 17.0711 17.0711C18.9464 15.1957 20 12.6522 20 10C20 7.34783 18.9464 4.8043 17.0711 2.92893C15.1957 1.05357 12.6522 0 10 0C7.34783 0 4.8043 1.05357 2.92893 2.92893C1.05357 4.8043 0 7.34783 0 10ZM9.41406 14.7266C9.04688 15.0937 8.45312 15.0937 8.08984 14.7266C7.72656 14.3594 7.72266 13.7656 8.08984 13.4023L11.4883 10.0039L8.08984 6.60547C7.72266 6.23828 7.72266 5.64453 8.08984 5.28125C8.45703 4.91797 9.05078 4.91406 9.41406 5.28125L13.4766 9.33594C13.8438 9.70312 13.8438 10.2969 13.4766 10.6602L9.41406 14.7266Z" fill="#064A00"/>
</svg>
