<svg width="20" height="20" viewBox="0 0 20 20" fill="none" xmlns="http://www.w3.org/2000/svg">
<path fill-rule="evenodd" clip-rule="evenodd" d="M6.37334 0C9.89324 0 12.7467 2.85344 12.7467 6.37334C12.7467 7.01721 12.6512 7.63877 12.4736 8.22465L19.12 14.8711C20.2933 16.0444 20.2933 17.9467 19.12 19.12C17.9467 20.2933 16.0444 20.2933 14.8711 19.12L8.22465 12.4736C7.63877 12.6512 7.01721 12.7467 6.37334 12.7467C2.85344 12.7467 0 9.89324 0 6.37334C0 5.69408 0.106264 5.03963 0.303074 4.42573L3.31786 7.43556L6.30607 6.44036L6.43951 6.30692L7.43556 3.32151L4.41725 0.305797C5.03361 0.107244 5.69095 0 6.37334 0Z" fill="#064A00"/>
</svg>
