<svg width="21" height="20" viewBox="0 0 21 20" fill="none" xmlns="http://www.w3.org/2000/svg">
<path fill-rule="evenodd" clip-rule="evenodd" d="M4.18759 10.8837C5.65811 10.2681 7.31392 10.7207 8.73401 12.1244L8.78092 12.176C10.0263 13.7391 10.3769 15.1557 9.82576 16.3847C8.45022 19.45 1.91848 19.8945 1.17853 19.9343L0 20L0.661382 19.0197C0.67194 19.0032 1.78245 17.3252 1.78245 14.4592C1.78245 12.9453 2.77101 11.4747 4.18759 10.8837ZM18.4548 0.000553563C19.0411 -0.0111789 19.5219 0.163548 19.8972 0.528245C20.3311 0.962142 20.5175 1.46638 20.4952 2.02926C20.378 4.82022 15.1948 9.93302 11.2429 13.4276C10.9838 12.7357 10.5628 11.9735 9.90492 11.1526L9.81112 11.0471C8.95624 10.191 8.00521 9.60469 7.00961 9.32326C10.1981 5.71143 15.5935 0.11665 18.4548 0.000553563Z" fill="#064A00"/>
</svg>
