<svg width="20" height="20" viewBox="0 0 20 20" fill="none" xmlns="http://www.w3.org/2000/svg">
<path d="M20 10C20 7.34783 18.9464 4.8043 17.0711 2.92893C15.1957 1.05357 12.6522 0 10 0C7.34783 0 4.8043 1.05357 2.92893 2.92893C1.05357 4.8043 0 7.34783 0 10C0 12.6522 1.05357 15.1957 2.92893 17.0711C4.8043 18.9464 7.34783 20 10 20C12.6522 20 15.1957 18.9464 17.0711 17.0711C18.9464 15.1957 20 12.6522 20 10ZM10.5859 5.27344C10.9531 4.90625 11.5469 4.90625 11.9102 5.27344C12.2734 5.64062 12.2773 6.23437 11.9102 6.59766L8.51172 9.99609L11.9102 13.3945C12.2773 13.7617 12.2773 14.3555 11.9102 14.7188C11.543 15.082 10.9492 15.0859 10.5859 14.7188L6.52344 10.6641C6.15625 10.2969 6.15625 9.70313 6.52344 9.33984L10.5859 5.27344Z" fill="#064A00"/>
</svg>
