<svg width="18" height="20" viewBox="0 0 18 20" fill="none" xmlns="http://www.w3.org/2000/svg">
<path d="M11.25 17.5H6.25C5.55906 17.5 5 18.0591 5 18.75C5 19.4409 5.55906 20 6.25 20H11.25C11.9409 20 12.5 19.4409 12.5 18.75C12.5 18.0591 11.9409 17.5 11.25 17.5Z" fill="#064A00"/>
<path d="M8.75 0C3.91844 0 0 3.91844 0 8.75C0 11.7016 1.46719 14.3053 3.70719 15.8888C3.88687 16.0156 4.17969 16.25 5 16.25C5.82031 16.25 11.8163 16.25 12.5 16.25C13.1837 16.25 13.6122 16.0169 13.7916 15.89C16.0328 14.3066 17.5 11.7016 17.5 8.75C17.5 3.91844 13.5816 0 8.75 0ZM10 13.75H7.5V7.5C7.5 6.80906 8.05906 6.25 8.75 6.25C9.44094 6.25 10 6.80906 10 7.5V13.75Z" fill="#064A00"/>
</svg>
