<svg width="17" height="12" viewBox="0 0 17 12" fill="none" xmlns="http://www.w3.org/2000/svg">
<path d="M0 4.32558C0 1.9357 1.9746 0 4.41251 0H4.70668C5.35752 0 5.88335 0.515465 5.88335 1.15349C5.88335 1.79151 5.35752 2.30698 4.70668 2.30698H4.41251C3.27629 2.30698 2.35334 3.21174 2.35334 4.32558V4.61395H4.70668C6.00469 4.61395 7.06002 5.64849 7.06002 6.92093V9.22791C7.06002 10.5003 6.00469 11.5349 4.70668 11.5349H2.35334C1.05533 11.5349 0 10.5003 0 9.22791V8.07442V6.92093V4.32558ZM9.41336 4.32558C9.41336 1.9357 11.388 0 13.8259 0H14.12C14.7709 0 15.2967 0.515465 15.2967 1.15349C15.2967 1.79151 14.7709 2.30698 14.12 2.30698H13.8259C12.6896 2.30698 11.7667 3.21174 11.7667 4.32558V4.61395H14.12C15.418 4.61395 16.4734 5.64849 16.4734 6.92093V9.22791C16.4734 10.5003 15.418 11.5349 14.12 11.5349H11.7667C10.4687 11.5349 9.41336 10.5003 9.41336 9.22791V8.07442V6.92093V4.32558Z" fill="#064A00"/>
</svg>
