<svg width="15" height="20" viewBox="0 0 15 20" fill="none" xmlns="http://www.w3.org/2000/svg">
<path d="M14.8867 14.4827L8.63755 0.732477C8.43506 0.286866 7.9907 0 7.49947 0C7.00886 0 6.56449 0.286866 6.36169 0.732477L0.111884 14.4824C-0.0637353 14.8692 -0.0309237 15.3198 0.198444 15.6761C0.429374 16.0342 0.824987 16.2501 1.24966 16.2501H6.2495V18.75C6.2495 19.441 6.80855 20 7.49947 20C8.19069 20 8.74974 19.441 8.74974 18.75V16.2501H13.749C14.1736 16.2501 14.5692 16.0342 14.8011 15.6764C15.0308 15.3198 15.0624 14.8695 14.8867 14.4827Z" fill="#064A00"/>
</svg>
