<svg width="66" height="66" fill="none" xmlns="http://www.w3.org/2000/svg"><circle cx="33" cy="33" r="33" fill="#EEE"/><path d="M49 47.3l-3.8-30.8c0-.3-.3-.5-.6-.5H21.4c-.3 0-.6.2-.6.5L17 47.3a.6.6 0 00.6.7h30.8a.6.6 0 00.6-.7zm-15.8-30v2.4H32v-2.4h1.2zm-11.3 0h1.3l-1 11.8a.6.6 0 101.2.2l1.1-12h6.2v3c0 .4.3.7.6.7h2.5c.4 0 .7-.3.7-.6v-3.1h7l2.8 29.4H21.7L22.8 35a.6.6 0 00-1.2-.2l-1.2 12h-2l3.5-29.5zm23.7 29.4l-2.8-29.5H44l3.6 29.5h-2.1z" fill="#2F2F2F"/><path d="M31.3 32.3h2.5c.4 0 .7-.3.7-.7v-7.5c0-.3-.3-.6-.7-.6h-2.5c-.3 0-.6.3-.6.6v7.5c0 .4.3.6.6.6zm.7-7.5h1.2V31H32v-6.3zM31.3 44.8h2.5c.4 0 .7-.3.7-.7v-8.7c0-.4-.3-.6-.7-.6h-2.5c-.3 0-.6.2-.6.6V44c0 .4.3.7.6.7zM32 36h1.2v7.5H32V36zM22.5 32.6a.6.6 0 000-1.2.6.6 0 100 1.2z" fill="#2F2F2F"/></svg>