<svg width="66" height="66" viewBox="0 0 66 66" fill="none" xmlns="http://www.w3.org/2000/svg">
<circle cx="33" cy="33" r="33" fill="#EEEEEE"/>
<path d="M49.6355 30.3237V26.9735H47.402V20.0419L43.4934 16.1333L39.5848 20.0419V26.9735H36.793V20.0419L32.8844 16.1333L28.9758 20.0419V26.9735H26.184V20.0419L22.2754 16.1333L18.3668 20.0419V26.9735H16.1333V30.3237H18.3668V40.9328H16.1333V44.283H18.3668V49.8667H26.184V44.283H28.9758V49.8667H36.793V44.283H39.5848V49.8667H47.402V44.283H49.6355V40.9328H47.402V30.3237H49.6355ZM47.402 28.0903H48.5188V29.207H47.402V28.0903ZM18.3668 43.1662H17.2501V42.0495H18.3668V43.1662ZM18.3668 29.207H17.2501V28.0903H18.3668V29.207ZM25.0672 48.7499H19.4835V20.5042L22.2754 17.7124L25.0672 20.5042V48.7499ZM28.9758 43.1662H26.184V42.0495H28.9758V43.1662ZM28.9758 40.9328H26.184V30.3237H28.9758V40.9328ZM28.9758 29.207H26.184V28.0903H28.9758V29.207ZM35.6763 48.7499H30.0926V20.5042L32.8844 17.7124L35.6763 20.5042V48.7499ZM39.5848 43.1662H36.793V42.0495H39.5848V43.1662ZM39.5848 40.9328H36.793V30.3237H39.5848V40.9328ZM39.5848 29.207H36.793V28.0903H39.5848V29.207ZM46.2853 40.9328V48.7499H40.7016V20.5042L43.4934 17.7124L46.2853 20.5042V40.9328ZM48.5188 42.0495V43.1662H47.402V42.0495H48.5188Z" fill="#086500"/>
</svg>
