<svg width="66" height="66" fill="none" xmlns="http://www.w3.org/2000/svg"><circle cx="33" cy="33" r="33" fill="#EEE"/><path d="M49.6 30.3V27h-2.2v-7l-4-3.9-3.8 4V27h-2.8v-7l-4-3.9-3.8 4V27h-2.8v-7l-4-3.9-3.8 4V27H16v3.3h2.3V41H16v3.4h2.3v5.6h7.8v-5.6H29v5.6h7.8v-5.6h2.8v5.6h7.8v-5.6h2.2v-3.4h-2.2V30.3h2.2zm-2.2-2.2h1.1v1.1h-1.1v-1.1zm-29 15h-1.1v-1h1v1zm0-13.9h-1.1v-1.1h1v1.1zM25 48.7h-5.6V20.5l2.8-2.8 2.8 2.8v28.2zm3.9-5.5h-2.8V42H29v1.2zm0-2.3h-2.8V30.3H29V41zm0-11.7h-2.8v-1.1H29v1.1zm6.7 19.5H30V20.5l2.8-2.8 2.8 2.8v28.2zm3.9-5.5h-2.8V42h2.8v1.2zm0-2.3h-2.8V30.3h2.8V41zm0-11.7h-2.8v-1.1h2.8v1.1zM46.3 41v7.8h-5.6V20.5l2.8-2.8 2.8 2.8v20.4zm2.2 1.1v1.2h-1.1V42h1.1z" fill="#2F2F2F"/></svg>