<svg width="66" height="66" fill="none" xmlns="http://www.w3.org/2000/svg"><circle cx="33" cy="33" r="33" fill="#EEE"/><path d="M35.7 13c-8.5 0-15.4 6.9-15.4 15.4a1.2 1.2 0 002.1.6 3.1 3.1 0 015.2 0 1.1 1.1 0 001.9 0 3.1 3.1 0 015-.2v7.5h-1a1.1 1.1 0 000 2.3h1v4.5H24.4L17 35.6c-.5-.4-1.2-.4-1.7 0-.4.5-.4 1.2 0 1.7l7.8 7.8c.2.2.5.3.8.3h4.2l-3 4.8c-.4.6-.2 1.3.3 1.6.5.4 1.2.2 1.6-.3l3.8-6.1h3.7v5.5a1.1 1.1 0 102.3 0v-5.5h3.7l3.8 6a1.1 1.1 0 102-1.2l-3.1-4.8h4.2a1.1 1.1 0 000-2.3H36.8v-4.5h1a1.1 1.1 0 000-2.3h-1v-7.5a3.1 3.1 0 015 .2 1.1 1.1 0 001.9 0 3.1 3.1 0 015.2 0c.2.3.6.5 1 .5.6 0 1.1-.5 1.1-1.1C51 19.9 44.1 13 35.7 13zm10.6 12.3c-1.3 0-2.6.5-3.5 1.4a5.4 5.4 0 00-7-.2 1.2 1.2 0 00-.3 0 5.4 5.4 0 00-7 .2 5.4 5.4 0 00-5.6-1 13 13 0 0125.5 0c-.6-.2-1.3-.4-2.1-.4z" fill="#2F2F2F"/></svg>