<svg width="126" height="125" viewBox="0 0 126 125" fill="none" xmlns="http://www.w3.org/2000/svg">
<path d="M110.113 26.4465C110.113 26.4466 110.114 26.4466 110.114 26.4465V25.915C110.129 13.9856 101.14 4.33536 90.1033 4.33536C87.6298 4.34705 85.2036 4.83586 82.9603 5.7537C80.2402 6.86669 76.8697 6.36414 74.6024 4.49403C71.2113 1.69706 66.8732 0.0731827 62.2955 0C58.079 0.0400346 54.0423 1.43576 50.7932 3.90338C48.866 5.36703 46.2567 5.83774 43.9399 5.13865C42.1992 4.61339 40.3789 4.34039 38.5385 4.33541C27.5027 4.33541 18.514 14.0413 18.514 25.957C18.514 26.0358 18.453 26.1014 18.3745 26.1084C8.10173 27.0198 0 36.3434 0 47.6627C0 59.5929 8.98837 69.284 20.024 69.2843C20.0243 69.2843 20.0245 69.2845 20.0245 69.2848C20.0245 69.285 20.0247 69.2852 20.025 69.2852C22.7891 69.2688 25.4942 68.6571 27.9509 67.5169C30.2668 66.4421 33.095 66.5998 35.2742 67.93C38.2051 69.7189 41.6181 70.7111 45.1459 70.7533C48.595 70.6986 51.968 69.764 54.9195 68.044C55.0186 67.9862 55.1172 67.9276 55.2152 67.8682C58.6981 65.7562 64.7904 66.0073 68.0862 68.4008C68.3973 68.6268 68.7159 68.8442 69.0416 69.0527C72.1554 71.0468 75.7937 72.1453 79.5324 72.2223C83.5902 72.1624 87.4764 70.8662 90.6668 68.5824C92.8885 66.9921 95.9606 66.6701 98.4676 67.7565C100.812 68.7727 103.368 69.3148 105.976 69.3267C117.026 69.3267 126 59.6208 126 47.7051C125.986 37.2578 119.306 28.5167 110.113 26.4464C110.113 26.4464 110.113 26.4465 110.113 26.4465ZM105.961 65.0325C105.961 65.0326 105.96 65.0326 105.96 65.0326C101.979 64.9818 98.1944 63.3585 95.491 60.5429C95.0291 60.0824 94.3737 59.8503 93.7112 59.9127C93.0488 59.9751 92.4532 60.3263 92.0926 60.8648C89.4518 65.1555 84.6953 67.8265 79.5172 67.9279C72.2566 67.9279 65.9695 62.418 64.285 54.5295C64.0834 53.5774 63.2306 52.8827 62.2227 52.8505H62.1498H62.1508C61.1845 52.8671 60.3458 53.4934 60.0885 54.389C57.9979 61.6198 52.0007 66.4723 45.1757 66.4725C45.1754 66.4725 45.1752 66.4728 45.1752 66.473C45.1752 66.4733 45.175 66.4735 45.1747 66.4735C40.6513 66.3963 36.4123 64.3369 33.6594 60.8787C33.2714 60.4104 32.694 60.1236 32.0721 60.0914C31.4512 60.0592 30.8445 60.2846 30.4069 60.7109C27.7145 63.4541 23.9859 65.0328 20.068 65.0882C11.3548 65.0882 4.39914 57.2699 4.39914 47.6616C4.39914 38.0534 11.4277 30.235 20.068 30.235H20.749C20.7495 30.235 20.7499 30.2352 20.7503 30.2355C20.7506 30.2358 20.751 30.236 20.7514 30.236C21.3853 30.268 22.0029 30.031 22.4413 29.5872C22.8799 29.1434 23.0946 28.5375 23.0298 27.9288C22.9569 27.2019 22.9133 26.5298 22.9133 25.9288C22.8556 16.3058 29.8843 8.53046 38.5387 8.53046C41.5956 8.55583 44.5616 9.53824 46.9905 11.3274C47.4646 11.6669 48.0612 11.8074 48.6446 11.7147C49.228 11.623 49.7467 11.3059 50.083 10.8377C52.7702 6.80474 57.3648 4.32475 62.3394 4.22235C65.1816 4.30918 67.9448 5.14914 70.3242 6.64959C72.7046 8.14905 74.6088 10.2514 75.8293 12.7254C76.1545 13.3371 76.7693 13.7556 77.4753 13.8474C78.1823 13.94 78.8904 13.6932 79.3725 13.1869C82.1064 10.2456 86.004 8.55384 90.1034 8.53036C98.8167 8.53036 105.772 16.3487 105.772 25.957V25.956C105.77 26.6428 105.732 27.3296 105.656 28.0125C105.537 29.1529 106.39 30.1744 107.573 30.3061C115.604 31.2153 121.645 38.6981 121.645 47.6488C121.63 57.2142 114.601 65.0322 105.961 65.0324C105.961 65.0324 105.961 65.0324 105.961 65.0325Z" fill="#086500"/>
<path d="M61.4978 67.4681C60.2946 67.4679 59.3191 68.4433 59.3191 69.6465V72.3933C59.3191 75.0414 56.0256 76.2616 54.3002 74.2526L53.8543 73.7334C53.103 72.8586 51.7942 72.7349 50.8922 73.4535C49.9426 74.21 49.8102 75.6034 50.6003 76.5252L58.1153 85.2938C58.892 86.1999 59.3189 87.354 59.3189 88.5475V121.932C59.3189 123.135 60.2941 124.11 61.4972 124.11C62.7002 124.11 63.6755 123.135 63.6755 121.932V88.2055C63.6755 87.0926 64.0468 86.0115 64.7306 85.1334L72.0655 75.7143C72.8132 74.7542 72.6148 73.3654 71.6283 72.6529C70.691 71.9761 69.3861 72.1624 68.6757 73.0746L68.3879 73.4443C66.8475 75.4224 63.6758 74.3331 63.6758 71.826V69.6465C63.6758 68.4436 62.7007 67.4684 61.4978 67.4681Z" fill="#086500"/>
<path d="M93.9956 106.947C93.9957 106.948 93.9957 106.948 93.9959 106.948C95.0768 106.939 96.1343 106.71 97.1025 106.285C98.3949 105.719 99.895 105.555 101.28 105.825C101.767 105.921 102.265 105.969 102.767 105.969C105.025 105.871 107.15 104.915 108.677 103.311C110.204 101.706 111.008 99.5839 110.914 97.4093C110.958 95.7138 110.478 94.0435 109.535 92.6114C109.161 92.0438 108.721 91.5237 108.225 91.0601C106.827 89.753 105.671 88.0815 104.84 86.3576C104.424 85.4939 103.85 84.7003 103.136 84.0176C101.649 82.5923 99.6641 81.7524 97.5683 81.6616C95.34 81.6616 92.8887 81.297 90.7691 80.6096C90.0051 80.3618 89.1983 80.2283 88.3762 80.2207C87.4507 80.2217 86.542 80.3858 85.6918 80.6973C84.0318 81.3054 82.1867 81.6437 80.4188 81.6616C78.3727 81.7465 76.4299 82.5484 74.9542 83.9152C74.3424 84.4822 73.8283 85.1301 73.4241 85.8344C72.3937 87.63 70.9882 89.3627 69.3665 90.6495C68.78 91.1148 68.2555 91.6551 67.809 92.2593C66.6867 93.7792 66.1214 95.6154 66.2025 97.4795C66.1042 99.6472 66.8984 101.764 68.4137 103.37C69.929 104.976 72.0409 105.94 74.2906 106.053C74.5488 106.051 74.8059 106.035 75.0609 106.008C76.9916 105.799 79.069 105.89 80.9724 106.275C81.5082 106.383 82.0577 106.436 82.6115 106.43C84.1685 106.422 85.8498 107.491 85.8498 109.048V121.929C85.8498 123.132 86.825 124.108 88.0281 124.108C89.2311 124.108 90.2064 123.132 90.2064 121.929V105.926C90.2064 105.926 90.2067 105.927 90.2072 105.927C91.3536 106.584 92.6609 106.937 93.9954 106.947C93.9955 106.947 93.9956 106.947 93.9956 106.947ZM82.6115 102.235C82.6115 102.235 82.6115 102.235 82.6115 102.235C81.5429 102.196 80.5553 101.678 79.9394 100.836C79.5514 100.369 78.9761 100.085 78.3562 100.052C77.7312 100.018 77.1214 100.248 76.6869 100.683C76.1916 101.191 75.5425 101.528 74.8399 101.651C74.4881 101.713 74.1257 101.678 73.7852 101.57C72.609 101.196 71.6288 100.381 71.0774 99.2982C70.4453 98.0582 70.4453 96.6067 71.0774 95.3667C71.6849 94.174 72.8124 93.3058 74.149 92.9955C74.2527 92.9714 74.3591 92.9619 74.4656 92.9619H74.4646C75.0976 92.9931 75.7125 92.758 76.15 92.317C76.5876 91.877 76.8044 91.2751 76.7446 90.6683V90.1366C76.6737 89.1064 77.0151 88.0889 77.6978 87.2927C78.3815 86.4976 79.3549 85.9835 80.4184 85.8567C81.1174 85.8655 81.795 86.0908 82.3501 86.5006C82.8241 86.8401 83.4207 86.9806 84.0042 86.8879C84.5876 86.7962 85.1072 86.4791 85.4425 86.0108C86.0736 85.047 87.1645 84.4528 88.3475 84.4304C89.7322 84.486 90.965 85.2938 91.5272 86.5143C91.8523 87.125 92.4672 87.5445 93.1742 87.6362C93.8802 87.7288 94.5882 87.482 95.0704 86.9757C95.6974 86.2821 96.5989 85.8762 97.5541 85.8567C98.647 85.9699 99.6508 86.4918 100.349 87.3113C101.047 88.1298 101.383 89.1795 101.286 90.2351V90.7804C101.167 91.9209 102.02 92.9423 103.202 93.074C104.203 93.2994 105.088 93.8584 105.702 94.6515C106.234 95.3409 106.534 96.1695 106.562 97.0227C106.571 97.2801 106.575 97.5383 106.573 97.7959C106.566 98.7176 106.232 99.6149 105.62 100.333C104.922 101.152 103.918 101.674 102.825 101.787C101.905 101.764 101.033 101.381 100.415 100.724C99.9486 100.265 99.2922 100.034 98.6287 100.094C97.9633 100.155 97.3636 100.505 97.002 101.045C96.3973 102.05 95.3023 102.689 94.098 102.738C93.1753 102.693 92.2981 102.339 91.6184 101.735C90.9397 101.132 90.5012 100.32 90.3806 99.4377C90.1791 98.4855 89.3262 97.7909 88.3183 97.7587H88.2454C87.27 97.7626 86.415 98.3909 86.1547 99.2972C85.9765 100.091 85.5338 100.808 84.8947 101.338C84.2545 101.868 83.4533 102.183 82.6115 102.235C82.6115 102.235 82.6115 102.235 82.6115 102.235Z" fill="#086500"/>
</svg>
